# xmcd
#
# Track frame offsets: 
#        150
#        20878
#        40431
#        58305
#        83796
#        101038
#        121297
#        141905
#        159735
#        178086
#
# Disc length: 2610 seconds
#
# Revision: 8
# Processed by: cddbd v1.5.2PL0 Copyright (c) Steve Scherf et al.
# Submitted via: ExactAudioCopyFreeDBPlugin 1.0
#
DISCID=930a300a
DTITLE=Anastacia - It's A Man's World
DYEAR=2012
DGENRE=Pop
TTITLE0=Ramble On (Led Zeppelin)
TTITLE1=Best Of You (Foo Fighters)
TTITLE2=Sweet Child O' Mine (Guns'N'Roses)
TTITLE3=You Can't Always Get What You Want (Rolling Stones)
TTITLE4=One (U2)
TTITLE5=Back In Black (ACDC)
TTITLE6=Dream On (Aerosmith)
TTITLE7=Use Somebody (Kings Of Leon)
TTITLE8=You Give Love A Bad Name (Bon Jovi)
TTITLE9=Wonderwall (Oasis)
EXTD=
EXTT0=
EXTT1=
EXTT2=
EXTT3=
EXTT4=
EXTT5=
EXTT6=
EXTT7=
EXTT8=
EXTT9=
PLAYORDER=
